# AST/ASF file generated using VICON BodyLanguage
# -----------------------------------------------
:version 1.10
:name VICON
:units
  mass 1.0
  length 0.45
  angle deg
:documentation
   .ast/.asf automatically generated from VICON data using
   VICON BodyBuilder and BodyLanguage model FoxedUp or BRILLIANT.MOD
:root
   order TX TY TZ RX RY RZ
   axis XYZ
   position 0 0 0  
   orientation 0 0 0 
:bonedata
  begin
     id 1 
     name lhipjoint
     direction 0.602128 -0.715006 0.355257 
     length 2.21237 
     axis 0 0 0  XYZ
  end
  begin
     id 2 
     name lfemur
     direction 0.34202 -0.939693 0  
     length 6.71649  
     axis 0 0 20  XYZ
    dof rx ry rz
    limits (-160.0 20.0)
           (-70.0 70.0)
           (-60.0 70.0)
  end
  begin
     id 3 
     name ltibia
     direction 0.34202 -0.939693 0   
     length 6.97123   
     axis 0 0 20   XYZ
    dof rx
    limits (-10.0 170.0)
  end
  begin
     id 4 
     name lfoot
     direction 0.0655697 -0.180151 0.981451   
     length 1.80924   
     axis -90 7.62852e-016 20   XYZ
    dof rx rz
    limits (-45.0 90.0)
           (-70.0 20.0)
  end
  begin
     id 5 
     name ltoes
     direction 1.53545e-011 -4.21827e-011 1   
     length 0.916331   
     axis -90 7.62852e-016 20   XYZ
    dof rx
    limits (-90.0 20.0)
  end
  begin
     id 6 
     name rhipjoint
     direction -0.625414 -0.698792 0.347201   
     length 2.2637  
     axis 0 0 0  XYZ 
  end
  begin
     id 7 
     name rfemur
     direction -0.34202 -0.939693 0   
     length 7.07595   
     axis 0 0 -20   XYZ
    dof rx ry rz
    limits (-160.0 20.0)
           (-70.0 70.0)
           (-70.0 60.0)
  end
  begin
     id 8 
     name rtibia
     direction -0.34202 -0.939693 0   
     length 7.22924   
     axis 0 0 -20   XYZ
    dof rx
    limits (-10.0 170.0)
 end
 begin
     id 9 
     name rfoot
     direction -0.0766747 -0.210662 0.974547   
     length 1.98482  
     axis -90 -7.62852e-016 -20   XYZ
    dof rx rz
    limits (-45.0 90.0)
           (-20.0 70.0)
  end
  begin
     id 10 
     name rtoes
     direction -1.53532e-011 -4.21867e-011 1   
     length 0.999842   
     axis -90 -7.62852e-016 -20   XYZ
    dof rx
    limits (-90.0 20.0)
  end
  begin
     id 11 
     name lowerback
     direction -0.0224668 0.997354 -0.0691422   
     length 2.09945   
     axis 0 0 0   XYZ
    dof rx ry rz
    limits (-20.0 45.0)
           (-30.0 30.0)
           (-30.0 30.0)
  end
  begin
     id 12 
     name upperback
     direction 0.0134698 0.998451 -0.0539888   
     length 2.09758   
     axis 0 0 0   XYZ
    dof rx ry rz
    limits (-20.0 45.0)
           (-30.0 30.0)
           (-30.0 30.0)
  end
  begin
     id 13 
     name thorax
     direction 0.0241905 0.99948 -0.0213333   
     length 2.10428   
     axis 0 0 0   XYZ
    dof rx ry rz
    limits (-20.0 45.0)
           (-30.0 30.0)
           (-30.0 30.0)
  end
  begin
     id 14 
     name lowerneck
     direction -0.00866847 0.995978 0.0891737   
     length 1.3959   
     axis 0 0 0   XYZ
    dof rx ry rz
    limits (-20.0 45.0)
           (-30.0 30.0)
           (-30.0 30.0)
  end
  begin
     id 15 
     name upperneck
     direction 0.0680679 0.992203 0.104404   
     length 1.39452   
     axis 0 0 0   XYZ
    dof rx ry rz
    limits (-20.0 45.0)
           (-30.0 30.0)
           (-30.0 30.0)
  end
  begin
     id 16
     name head
     direction 0.0242216 0.999358 0.0264054  
     length 1.40433  
     axis 0 0 0   XYZ
    dof rx ry rz
    limits (-20.0 45.0)
           (-30.0 30.0)
           (-30.0 30.0)
  end
  begin
     id 17 
     name lclavicle
     direction 0.929368 0.362991 -0.0671771  
     length 3.04887  
     axis 0 0 0   XYZ
    dof ry rz
    limits (-20.0 10.0)
           (0.0 20.0)
  end
  begin
     id 18 
     name lhumerus
     direction 1 -4.48967e-011 -7.13741e-028   
     length 4.77195   
     axis -180 -30 -90   XYZ
    dof rx ry rz
    limits (-60.0 90.0)
           (-90.0 90.0)
           (-90.0 90.0)
  end
  begin
     id 19
     name lradius
     direction 1 -4.48977e-011 3.60404e-027   
     length 2.98444   
     axis -180 -30 -90   XYZ
    dof rx
    limits (-10.0 170.0)
  end
  begin
     id 20
     name lwrist
     direction 1 -4.48997e-011 7.54877e-027   
     length 1.49222   
     axis -7.18178e-015 90 90   XYZ
    dof ry
    limits (-180.0 0.0)
 end
  begin
     id 21 
     name lhand
     direction 1 -4.489e-011 1.51105e-026   
     length 0.992285   
     axis -9.63605e-015 90 90   XYZ
    dof rx rz
    limits (-90.0 90.0)
           (-45.0 45.0)
  end
  begin
     id 22 
     name lfingers
     direction 1 -4.48998e-011 3.01948e-026   
     length 0.800006   
     axis -1.92718e-014 90 90   XYZ
    dof rx
    limits (0.0 90.0)
  end
  begin
     id 23
     name lthumb
     direction 0.707107 -6.34881e-011 0.707107   
     length 1.14865   
     axis -90 45 -3.53137e-014   XYZ
    dof rx rz
    limits (-45.0 45.0)
           (-45.0 45.0)
  end
  begin
     id 24 
     name rclavicle
     direction -0.945672 0.324529 0.0196374   
     length 3.4236  
     axis 0 0 0   XYZ 
    dof ry rz
    limits (-10.0 20.0)
           (-20.0 0.0)
  end
  begin
     id 25 
     name rhumerus
     direction -1 -4.4896e-011 1.02757e-029  
     length 4.62052   
     axis -180 30 90   XYZ
    dof rx ry rz
    limits (-90.0 60.0)
           (-90.0 90.0)
           (-90.0 90.0)
  end
  begin
     id 26 
     name rradius
     direction -1 -4.48982e-011 3.85962e-027   
     length 2.95332   
     axis -180 30 90   XYZ
    dof rx
    limits (-10.0 170.0)
  end
  begin
     id 27 
     name rwrist
     direction -1 -4.48961e-011 7.55118e-027   
     length 1.47666   
     axis -7.18178e-015 -90 -90   XYZ
    dof ry
    limits (-180.0 0.0)
  end
  begin
     id 28
     name rhand
     direction -1 -4.48984e-011 1.50994e-026   
     length 0.990956   
     axis -9.63605e-015 -90 -90   XYZ
    dof rx rz
    limits (-90.0 90.0)
           (-45.0 45.0)
  end
  begin
     id 29
     name rfingers
     direction -1 -4.4892e-011 3.02158e-026   
     length 0.798934   
     axis -1.92718e-014 -90 -90   XYZ
    dof rx
    limits (0.0 90.0)
  end
  begin
     id 30
     name rthumb
     direction -0.707107 -6.34916e-011 0.707107   
     length 1.14711   
     axis -90 -45 3.53137e-014   XYZ
    dof rx rz
    limits (-45.0 45.0)
           (-45.0 45.0)
  end
:hierarchy
  begin
    root lhipjoint rhipjoint lowerback
    lhipjoint lfemur
    lfemur ltibia
    ltibia lfoot
    lfoot ltoes
    rhipjoint rfemur
    rfemur rtibia
    rtibia rfoot
    rfoot rtoes
    lowerback upperback
    upperback thorax
    thorax lowerneck lclavicle rclavicle
    lowerneck upperneck
    upperneck head
    lclavicle lhumerus
    lhumerus lradius
    lradius lwrist
    lwrist lhand lthumb
    lhand lfingers
    rclavicle rhumerus
    rhumerus rradius
    rradius rwrist
    rwrist rhand rthumb
    rhand rfingers
  end

#!OML:ASF H:\ManfredObstacles\Project 1\Capture day 1\Session 1\Male.ASF
:FULLY-SPECIFIED
:DEGREES
206
root 0.805066 16.3376 9.92767 -170.337 -1.50921 -178.527
lowerback -10.964 -0.073679 -1.12232
upperback 1.19906 0.0206277 0.268552
thorax 7.43166 -0.047545 0.919606
lowerneck -1.22653 -1.02773 -5.34825
upperneck -3.26735 -1.30656 7.57915
head -0.733224 -0.710833 3.39025
rclavicle -1.11816e-015 -3.97569e-015
rhumerus -32.8444 -18.7296 -78.3919
rradius 30.0447
rwrist 28.4336
rhand -2.28359 -8.81591
rfingers 7.12502
rthumb 23.4014 -37.4131
lclavicle -1.11816e-015 -3.97569e-015
lhumerus -31.6022 22.6241 77.3235
lradius 16.5661
lwrist -37.0695
lhand -8.12799 7.195
lfingers 7.12502
lthumb 17.7857 36.4016
rfemur -2.08137 -2.78337 25.0278
rtibia 20.8087
rfoot -21.564 11.2633
rtoes 18.7734
lfemur -30.1322 1.24947 -19.7758
ltibia 19.443
lfoot 2.8512 -5.02356
ltoes -16.6496
207
root 0.766318 16.3556 9.69239 -170.388 -1.49301 -179.028
lowerback -11.1764 -0.135578 -1.65147
upperback 1.08955 0.0228751 0.0676943
thorax 7.43631 -0.0649768 1.00638
lowerneck -1.27766 -1.05853 -5.49417
upperneck -3.13708 -1.34996 7.89255
head -0.677136 -0.733461 3.52571
rclavicle -1.76421e-015 -3.77691e-015
rhumerus -33.6028 -19.412 -77.8113
rradius 29.2894
rwrist 29.0475
rhand -2.48395 -8.86966
rfingers 7.12502
rthumb 23.2091 -37.4912
lclavicle -1.76421e-015 -3.77691e-015
lhumerus -31.9202 24.2399 76.3484
lradius 15.8353
lwrist -38.6173
lhand -8.31384 7.33544
lfingers 7.12502
lthumb 17.6068 36.5582
rfemur -1.96487 -2.51679 24.3139
rtibia 22.4586
rfoot -20.7563 10.9501
rtoes 18.0679
lfemur -29.4208 1.73592 -20.5487
ltibia 20.1217
lfoot 1.67932 -5.87124
ltoes -18.166
208
root 0.729411 16.3732 9.468 -170.435 -1.57437 -179.249
lowerback -11.304 -0.122196 -1.87671
upperback 0.946561 0.0792684 -0.106222
thorax 7.35464 -0.0437794 0.959307
lowerneck -1.14354 -1.14182 -5.54607
upperneck -3.05839 -1.47032 8.23089
head -0.664482 -0.80017 3.65444
rclavicle 2.83268e-015 2.5842e-015
rhumerus -34.5137 -20.6653 -76.9759
rradius 28.4263
rwrist 29.9567
rhand -2.5052 -8.75189
rfingers 7.12502
rthumb 23.1888 -37.376
lclavicle 2.83268e-015 2.5842e-015
lhumerus -32.3712 26.1117 75.0216
lradius 15.035
lwrist -40.9839
lhand -8.6822 7.17173
lfingers 7.12502
lthumb 17.2523 36.4259
rfemur -2.35385 -2.46412 23.9081
rtibia 24.9404
rfoot -19.7071 10.845
rtoes 17.1299
lfemur -28.6993 2.30128 -20.9935
ltibia 20.6091
lfoot 0.743021 -6.99656
ltoes -18.0032
209
root 0.692406 16.3901 9.25645 -170.444 -1.71901 -179.098
lowerback -11.307 -0.0816497 -1.71527
upperback 0.774254 0.109525 -0.189599
thorax 7.17145 -0.0207164 0.785123
lowerneck -1.0982 -1.24901 -5.45224
upperneck -2.97925 -1.62388 8.4518
head -0.634521 -0.88297 3.71286
rclavicle 2.50966e-015 3.57812e-015
rhumerus -35.4434 -22.0528 -76.0367
rradius 27.5075
rwrist 30.8918
rhand -2.48317 -8.67962
rfingers 7.12502
rthumb 23.2099 -37.3011
lclavicle 2.50966e-015 3.57812e-015
lhumerus -32.797 27.9228 73.6669
lradius 14.3007
lwrist -43.2328
lhand -8.87218 7.13818
lfingers 7.12502
lthumb 17.0695 36.4083
rfemur -3.30697 -2.67179 23.8901
rtibia 28.1227
rfoot -18.1334 10.9898
rtoes 16.8832
lfemur -28.0281 2.80029 -20.9945
ltibia 20.9573
lfoot 0.073628 -8.28789
ltoes -18.4644
210
root 0.65093 16.4115 9.04914 -170.463 -1.87812 -178.941
lowerback -11.513 -0.127316 -1.67907
upperback 0.803851 0.0428211 -0.107938
thorax 7.32197 -0.0547809 0.839585
lowerneck -1.21128 -1.31859 -5.51071
upperneck -3.07531 -1.71319 8.55631
head -0.637231 -0.929586 3.7605
rclavicle -4.22417e-016 -5.56597e-015
rhumerus -35.9846 -23.0513 -75.0689
rradius 26.6929
rwrist 31.846
rhand -2.23064 -8.65078
rfingers 7.12502
rthumb 23.4522 -37.2415
lclavicle -4.22417e-016 -5.56597e-015
lhumerus -32.9529 29.5834 72.8509
lradius 13.8508
lwrist -44.8605
lhand -8.66654 7.29181
lfingers 7.12502
lthumb 17.2674 36.5447
rfemur -4.68632 -3.37081 23.7924
rtibia 31.8888
rfoot -15.7959 11.3197
rtoes 17.6759
lfemur -27.3045 3.20534 -20.9958
ltibia 21.2025
lfoot -0.579004 -9.35994
ltoes -18.4884
211
root 0.601874 16.431 8.84498 -170.562 -2.01843 -178.961
lowerback -11.8249 -0.227328 -1.84704
upperback 0.991205 -0.0631571 0.0195025
thorax 7.70414 -0.118554 1.05066
lowerneck -1.15994 -1.36157 -5.65809
upperneck -3.48279 -1.75911 8.61652
head -0.772416 -0.960691 3.81577
rclavicle 3.97569e-015 -7.95139e-016
rhumerus -36.2959 -23.7462 -74.1448
rradius 26.044
rwrist 32.7625
rhand -1.70132 -8.53945
rfingers 7.12502
rthumb 23.9598 -37.0644
lclavicle 3.97569e-015 -7.95139e-016
lhumerus -32.7824 30.148 72.9447
lradius 13.7745
lwrist -45.1635
lhand -8.26733 7.49216
lfingers 7.12502
lthumb 17.6516 36.7109
rfemur -6.30724 -4.65776 23.349
rtibia 36.0964
rfoot -12.6221 11.6791
rtoes 19.1647
lfemur -26.4454 3.83662 -21.2976
ltibia 21.3239
lfoot -1.0444 -10.4348
ltoes -17.2545
212
root 0.552393 16.4419 8.64522 -170.666 -2.08711 -178.91
lowerback -11.7613 -0.261045 -1.76269
upperback 0.956192 -0.122334 0.0180528
thorax 7.63185 -0.143174 0.990717
lowerneck -0.900214 -1.40721 -5.70396
upperneck -3.83372 -1.82042 8.84883
head -0.925238 -1.0081 3.91487
rclavicle 8.32411e-015 -1.19271e-015
rhumerus -37.0638 -24.1162 -73.4265
rradius 25.6534
rwrist 33.3486
rhand -1.06559 -8.32529
rfingers 7.12502
rthumb 24.5693 -36.7688
lclavicle 8.32411e-015 -1.19271e-015
lhumerus -32.611 29.1947 73.4245
lradius 13.8698
lwrist -44.2158
lhand -7.94761 7.66423
lfingers 7.12502
lthumb 17.9593 36.855
rfemur -8.18601 -6.14141 22.912
rtibia 40.564
rfoot -9.15687 11.5127
rtoes 19.6759
lfemur -25.5445 4.71639 -21.572
ltibia 21.3117
lfoot -1.30966 -11.5215
ltoes -15.6043
213
root 0.505968 16.4497 8.45314 -170.697 -2.08263 -178.866
lowerback -11.3536 -0.284468 -1.59357
upperback 0.713771 -0.186363 -0.0746966
thorax 7.14106 -0.162715 0.786503
lowerneck -0.749493 -1.42204 -5.60483
upperneck -3.95115 -1.84711 9.07497
head -0.987255 -1.03565 3.97947
rclavicle 1.14301e-015 7.55382e-015
rhumerus -38.082 -24.0311 -72.9761
rradius 25.5464
rwrist 33.5936
rhand -0.518977 -8.1716
rfingers 7.12502
rthumb 25.0932 -36.5428
lclavicle 1.14301e-015 7.55382e-015
lhumerus -32.5248 27.2999 74.1058
lradius 14.1901
lwrist -42.4188
lhand -7.53194 7.78817
lfingers 7.12502
lthumb 18.3592 36.9418
rfemur -10.3708 -7.45201 22.5063
rtibia 45.0638
rfoot -5.81729 10.6157
rtoes 21.0864
lfemur -24.7233 5.56873 -21.8243
ltibia 21.2258
lfoot -1.59194 -12.476
ltoes -13.7224
214
root 0.463119 16.4532 8.2707 -170.731 -2.11258 -179.039
lowerback -10.9256 -0.40486 -1.76246
upperback 0.59305 -0.332403 -0.127511
thorax 6.77405 -0.236694 0.803011
lowerneck -0.813523 -1.42003 -5.39459
upperneck -4.11077 -1.8444 9.00635
head -1.02954 -1.0414 3.91505
rclavicle 1.26725e-015 0
rhumerus -38.6623 -23.5964 -72.7646
rradius 25.5757
rwrist 33.5531
rhand -0.0481646 -8.18382
rfingers 7.12502
rthumb 25.5442 -36.4912
lclavicle 1.26725e-015 0
lhumerus -32.211 25.2165 75.2089
lradius 14.7592
lwrist -40.2548
lhand -7.01276 7.90588
lfingers 7.12502
lthumb 18.8586 37.0117
rfemur -12.6541 -8.61659 21.9549
rtibia 49.3568
rfoot -4.51609 8.98251
rtoes 18.1104
lfemur -23.9136 6.13329 -22.2418
ltibia 21.1048
lfoot -2.01836 -13.2949
ltoes -12.801
215
root 0.431967 16.4524 8.093 -170.861 -2.22026 -179.348
lowerback -10.4892 -0.592315 -2.22423
upperback 0.623547 -0.5291 -0.149062
thorax 6.56899 -0.346283 1.01106
lowerneck -0.877215 -1.4164 -5.25266
upperneck -4.45632 -1.83479 8.93663
head -1.13221 -1.04738 3.86687
rclavicle -2.60905e-015 3.97569e-015
rhumerus -38.9975 -23.1861 -72.6427
rradius 25.682
rwrist 33.4843
rhand 0.325537 -8.14315
rfingers 7.12502
rthumb 25.9021 -36.3987
lclavicle -2.60905e-015 3.97569e-015
lhumerus -31.7644 22.9811 76.4948
lradius 15.407
lwrist -38.134
lhand -6.8401 7.99913
lfingers 7.12502
lthumb 19.0246 37.0887
rfemur -14.8411 -9.67936 21.3833
rtibia 53.2609
rfoot -5.60096 7.15913
rtoes 19.2562
lfemur -22.9337 6.4108 -22.6804
ltibia 20.8447
lfoot -2.37913 -13.9132
ltoes -12.3507
216
root 0.406601 16.4545 7.91542 -171.082 -2.40197 -179.569
lowerback -10.0277 -0.777376 -2.59469
upperback 0.707918 -0.73706 -0.167766
thorax 6.40916 -0.458168 1.17093
lowerneck -0.762882 -1.39439 -5.23458
upperneck -4.97647 -1.80005 9.06826
head -1.32403 -1.05182 3.92063
rclavicle 3.2551e-015 3.18055e-015
rhumerus -39.3976 -23.1925 -72.4067
rradius 25.7661
rwrist 33.6988
rhand 0.286753 -8.06962
rfingers 7.12502
rthumb 25.865 -36.3306
lclavicle 3.2551e-015 3.18055e-015
lhumerus -31.4174 20.829 77.5618
lradius 16.0507
lwrist -36.5063
lhand -6.94568 8.03864
lfingers 7.12502
lthumb 18.9231 37.1382
rfemur -16.917 -10.626 20.9574
rtibia 56.6192
rfoot -6.92158 5.62792
rtoes 21.0733
lfemur -21.7586 6.55715 -22.9402
ltibia 20.4342
lfoot -2.44291 -14.3851
ltoes -10.9345
217
root 0.380859 16.4596 7.73923 -171.411 -2.62504 -179.99
lowerback -9.54536 -0.992475 -3.15427
upperback 0.92209 -0.962903 -0.203529
thorax 6.38149 -0.587378 1.41786
lowerneck -0.694998 -1.39223 -5.354
upperneck -5.53346 -1.78962 9.22619
head -1.5179 -1.067 4.01205
rclavicle -1.20513e-014 5.96354e-015
rhumerus -39.6216 -23.4857 -72.0666
rradius 25.7531
rwrist 33.9284
rhand -0.198661 -8.0867
rfingers 7.12502
rthumb 25.4001 -36.4147
lclavicle -1.20513e-014 5.96354e-015
lhumerus -30.9275 19.6555 78.2982
lradius 16.4902
lwrist -36.1342
lhand -7.13459 7.93627
lfingers 7.12502
lthumb 18.7414 37.0534
rfemur -18.8373 -11.4124 20.2935
rtibia 59.3369
rfoot -8.34692 4.74827
rtoes 21.4247
lfemur -20.4195 6.5837 -23.3874
ltibia 20.0177
lfoot -2.66166 -14.7561
ltoes -9.7459
218
root 0.357652 16.462 7.56726 -171.727 -2.80719 -180.58
lowerback -9.23728 -1.21014 -3.8597
upperback 1.26058 -1.1705 -0.268615
thorax 6.5909 -0.719401 1.71592
lowerneck -0.700575 -1.39391 -5.59378
upperneck -6.0486 -1.78402 9.3977
head -1.68507 -1.08003 4.13148
rclavicle 8.44835e-015 8.34896e-015
rhumerus -39.5978 -24.0522 -71.6705
rradius 25.5615
rwrist 34.2197
rhand -0.930217 -8.03865
rfingers 7.12502
rthumb 24.6991 -36.4644
lclavicle 8.44835e-015 8.34896e-015
lhumerus -30.0132 18.8002 79.0282
lradius 16.4977
lwrist -36.3587
lhand -7.68113 7.8634
lfingers 7.12502
lthumb 18.2156 37.0305
rfemur -20.7155 -11.942 19.4677
rtibia 61.3717
rfoot -9.54162 4.6391
rtoes 20.9368
lfemur -19.1448 6.65033 -24.0169
ltibia 19.7043
lfoot -3.39033 -15.1
ltoes -10.8814
219
root 0.336436 16.4605 7.40133 -171.911 -2.91327 -180.731
lowerback -9.10094 -1.33973 -4.05309
upperback 1.51059 -1.32015 -0.259698
thorax 6.79361 -0.806117 1.81061
lowerneck -0.491975 -1.78407 -5.7302
upperneck -6.45088 -1.64507 9.55353
head -1.85821 -0.739801 4.21639
rclavicle -9.44227e-016 -1.98785e-015
rhumerus -39.6558 -24.9806 -71.1052
rradius 25.1346
rwrist 34.7502
rhand -1.63602 -8.09878
rfingers 7.12502
rthumb 24.0225 -36.6155
lclavicle -9.44227e-016 -1.98785e-015
lhumerus -28.9338 18.0981 79.5706
lradius 16.0475
lwrist -36.9226
lhand -8.45685 7.98938
lfingers 7.12502
lthumb 17.4692 37.2244
rfemur -22.6888 -12.0489 19.2278
rtibia 62.7047
rfoot -10.4902 5.00181
rtoes 20.9942
lfemur -18.1392 6.65415 -24.1423
ltibia 19.5444
lfoot -4.14341 -15.2629
ltoes -12.7094
